<svg xmlns="http://www.w3.org/2000/svg" xmlns:xlink="http://www.w3.org/1999/xlink" viewBox="0 0 488.91 350.38"><defs><style>.cls-1{fill:url(#Namnlös_övertoning_88);}.cls-2{fill:url(#Namnlös_övertoning_88-2);}.cls-3{fill:url(#Namnlös_övertoning_12);}</style><linearGradient id="Namnlös_övertoning_88" x1="224.02" y1="50.21" x2="370.26" y2="219.2" gradientTransform="matrix(1, -0.01, 0.01, 1, 8.34, 12.97)" gradientUnits="userSpaceOnUse"><stop offset="0" stop-color="#312783"/><stop offset="1" stop-color="#3473ba"/></linearGradient><linearGradient id="Namnlös_övertoning_88-2" x1="68.3" y1="158.22" x2="68.31" y2="0.38" gradientTransform="matrix(1, 0, 0, 1, 0, 0)" xlink:href="#Namnlös_övertoning_88"/><linearGradient id="Namnlös_övertoning_12" x1="332.98" y1="-77.08" x2="34.5" y2="279.91" gradientUnits="userSpaceOnUse"><stop offset="0" stop-color="#f3bb00"/><stop offset="0.4" stop-color="#f18606"/><stop offset="1" stop-color="#e6332a"/></linearGradient></defs><title>Viscando-logga-orginal-small</title><g id="Lager_2" data-name="Lager 2"><g id="Lager_2-2" data-name="Lager 2"><path class="cls-1" d="M419.84,0a68.23,68.23,0,0,0-54.56,28.22L195.91,237.75c-.72.84-1.4,1.7-2.08,2.57l-.24.3h0a68.31,68.31,0,1,0,108.78,82.65L474.63,110.1A68.3,68.3,0,0,0,419.84,0Z"/><path class="cls-2" d="M18.21,117.38a68.31,68.31,0,1,1,118.4-46.44c0,15.89-6.28,31.4-16.66,43.62-12.52,14.75-31,24.69-51.65,24.69A68.13,68.13,0,0,1,18.21,117.38Z"/><path class="cls-3" d="M120,114.56l73.56-88.81,2.69-3.25,0,0A65.71,65.71,0,0,1,245.6,0H420.72a68.23,68.23,0,0,0-54.87,27.61l-153.12,189-.16.2c-3,3.86-10.23,10.49-10.23,10.49l-.21.17-.1.08a68.3,68.3,0,0,1-94.73-8.07L18.21,117.38A68.13,68.13,0,0,0,68.3,139.25c20.63,0,39.13-9.94,51.65-24.69Z"/></g></g></svg>